<svg width="32" height="30" viewBox="0 0 32 30" fill="none" xmlns="http://www.w3.org/2000/svg">
<rect x="0.5" y="5.61111" width="22.1111" height="23.8889" stroke="#0A722D"/>
<rect x="3.55548" y="2" width="21.3333" height="24.8889" fill="#67DF90"/>
<path d="M7.54537 21.7087C7.14404 21.7087 6.82671 21.592 6.59337 21.3587C6.36004 21.1254 6.24337 20.808 6.24337 20.4067V13.1687C6.34604 13.15 6.50937 13.1267 6.73337 13.0987C6.95737 13.0614 7.17204 13.0427 7.37737 13.0427C7.59204 13.0427 7.77871 13.0614 7.93737 13.0987C8.10537 13.1267 8.24537 13.1827 8.35737 13.2667C8.46937 13.3507 8.55337 13.4674 8.60937 13.6167C8.66537 13.766 8.69337 13.962 8.69337 14.2047V19.7347H11.8994C11.9647 19.8374 12.0254 19.9774 12.0814 20.1547C12.1374 20.3227 12.1654 20.5 12.1654 20.6867C12.1654 21.06 12.086 21.326 11.9274 21.4847C11.7687 21.634 11.5587 21.7087 11.2974 21.7087H7.54537ZM21.1071 21.3727C20.9764 21.5034 20.7851 21.6014 20.5331 21.6667C20.2904 21.7414 19.9964 21.7787 19.6511 21.7787C19.3058 21.7787 18.9791 21.7274 18.6711 21.6247C18.3631 21.522 18.1111 21.2747 17.9151 20.8827L16.5291 18.0547C16.3891 17.7654 16.2631 17.4947 16.1511 17.2427C16.0391 16.9814 15.9178 16.6827 15.7871 16.3467L15.7031 16.3607C15.7404 16.8647 15.7591 17.378 15.7591 17.9007C15.7684 18.4234 15.7731 18.9367 15.7731 19.4407V21.6107C15.6704 21.6387 15.5118 21.6667 15.2971 21.6947C15.0918 21.7227 14.8864 21.7367 14.6811 21.7367C14.4758 21.7367 14.2938 21.7227 14.1351 21.6947C13.9764 21.6667 13.8458 21.6107 13.7431 21.5267C13.6404 21.4427 13.5611 21.3307 13.5051 21.1907C13.4491 21.0414 13.4211 20.85 13.4211 20.6167V13.6167C13.5518 13.43 13.7524 13.29 14.0231 13.1967C14.2938 13.1034 14.5831 13.0567 14.8911 13.0567C15.2364 13.0567 15.5631 13.1127 15.8711 13.2247C16.1884 13.3274 16.4404 13.57 16.6271 13.9527L18.0271 16.7807C18.1671 17.07 18.2931 17.3454 18.4051 17.6067C18.5171 17.8587 18.6384 18.1527 18.7691 18.4887L18.8391 18.4747C18.8018 17.9707 18.7784 17.4667 18.7691 16.9627C18.7598 16.4587 18.7551 15.9547 18.7551 15.4507V13.1827C18.8578 13.1547 19.0118 13.1267 19.2171 13.0987C19.4318 13.0707 19.6418 13.0567 19.8471 13.0567C20.2578 13.0567 20.5704 13.1314 20.7851 13.2807C20.9998 13.4207 21.1071 13.7194 21.1071 14.1767V21.3727ZM26.1011 17.1167C26.4931 17.1167 26.7917 17.028 26.9971 16.8507C27.2117 16.664 27.3191 16.384 27.3191 16.0107C27.3191 15.656 27.2071 15.3854 26.9831 15.1987C26.7684 15.0027 26.4511 14.9047 26.0311 14.9047C25.8817 14.9047 25.7557 14.9094 25.6531 14.9187C25.5597 14.9187 25.4617 14.928 25.3591 14.9467V17.1167H26.1011ZM25.3731 21.6107C25.2704 21.6387 25.1071 21.6667 24.8831 21.6947C24.6684 21.7227 24.4537 21.7367 24.2391 21.7367C24.0244 21.7367 23.8331 21.718 23.6651 21.6807C23.5064 21.6527 23.3711 21.5967 23.2591 21.5127C23.1471 21.4287 23.0631 21.312 23.0071 21.1627C22.9511 21.0134 22.9231 20.8174 22.9231 20.5747V13.9807C22.9231 13.7847 22.9744 13.6354 23.0771 13.5327C23.1891 13.4207 23.3384 13.332 23.5251 13.2667C23.8424 13.1547 24.2017 13.0754 24.6031 13.0287C25.0137 12.9727 25.4244 12.9447 25.8351 12.9447C27.1231 12.9447 28.1077 13.22 28.7891 13.7707C29.4704 14.3214 29.8111 15.068 29.8111 16.0107C29.8111 16.468 29.7364 16.8834 29.5871 17.2567C29.4471 17.6207 29.2324 17.938 28.9431 18.2087C28.6631 18.47 28.3037 18.6754 27.8651 18.8247C27.4357 18.9647 26.9364 19.0347 26.3671 19.0347H25.3731V21.6107Z" fill="#02541E"/>
</svg>
