<svg width="96" height="32" viewBox="0 0 96 32" fill="none" xmlns="http://www.w3.org/2000/svg">
<rect x="0.5" y="5.5" width="55" height="26" stroke="#0A722D"/>
<rect x="5" width="58" height="27" fill="#67DF90"/>
<path d="M16.7 20.988C16.612 21.004 16.48 21.024 16.304 21.048C16.136 21.08 15.964 21.096 15.788 21.096C15.612 21.096 15.452 21.084 15.308 21.06C15.172 21.036 15.056 20.988 14.96 20.916C14.864 20.844 14.788 20.748 14.732 20.628C14.684 20.5 14.66 20.336 14.66 20.136V13.176C14.748 13.16 14.876 13.14 15.044 13.116C15.22 13.084 15.396 13.068 15.572 13.068C15.748 13.068 15.904 13.08 16.04 13.104C16.184 13.128 16.304 13.176 16.4 13.248C16.496 13.32 16.568 13.42 16.616 13.548C16.672 13.668 16.7 13.828 16.7 14.028V20.988ZM20.4833 19.704C20.6193 19.704 20.7673 19.692 20.9273 19.668C21.0953 19.636 21.2193 19.596 21.2993 19.548V18.588L20.4353 18.66C20.2113 18.676 20.0273 18.724 19.8833 18.804C19.7393 18.884 19.6673 19.004 19.6673 19.164C19.6673 19.324 19.7273 19.456 19.8473 19.56C19.9753 19.656 20.1873 19.704 20.4833 19.704ZM20.3873 14.988C20.8193 14.988 21.2113 15.032 21.5633 15.12C21.9233 15.208 22.2273 15.344 22.4753 15.528C22.7313 15.704 22.9273 15.932 23.0633 16.212C23.1993 16.484 23.2673 16.808 23.2673 17.184V19.872C23.2673 20.08 23.2073 20.252 23.0873 20.388C22.9753 20.516 22.8393 20.628 22.6793 20.724C22.1593 21.036 21.4273 21.192 20.4833 21.192C20.0593 21.192 19.6753 21.152 19.3313 21.072C18.9953 20.992 18.7033 20.872 18.4553 20.712C18.2153 20.552 18.0273 20.348 17.8913 20.1C17.7633 19.852 17.6993 19.564 17.6993 19.236C17.6993 18.684 17.8633 18.26 18.1913 17.964C18.5193 17.668 19.0273 17.484 19.7153 17.412L21.2873 17.244V17.16C21.2873 16.928 21.1833 16.764 20.9753 16.668C20.7753 16.564 20.4833 16.512 20.0993 16.512C19.7953 16.512 19.4993 16.544 19.2113 16.608C18.9233 16.672 18.6633 16.752 18.4313 16.848C18.3273 16.776 18.2393 16.668 18.1673 16.524C18.0953 16.372 18.0593 16.216 18.0593 16.056C18.0593 15.848 18.1073 15.684 18.2033 15.564C18.3073 15.436 18.4633 15.328 18.6713 15.24C18.9033 15.152 19.1753 15.088 19.4873 15.048C19.8073 15.008 20.1073 14.988 20.3873 14.988ZM29.4346 19.26C29.4346 19.868 29.2066 20.344 28.7506 20.688C28.2946 21.032 27.6226 21.204 26.7346 21.204C26.3986 21.204 26.0866 21.18 25.7986 21.132C25.5106 21.084 25.2626 21.012 25.0546 20.916C24.8546 20.812 24.6946 20.684 24.5746 20.532C24.4626 20.38 24.4066 20.2 24.4066 19.992C24.4066 19.8 24.4466 19.64 24.5266 19.512C24.6066 19.376 24.7026 19.264 24.8146 19.176C25.0466 19.304 25.3106 19.42 25.6066 19.524C25.9106 19.62 26.2586 19.668 26.6506 19.668C26.8986 19.668 27.0866 19.632 27.2146 19.56C27.3506 19.488 27.4186 19.392 27.4186 19.272C27.4186 19.16 27.3706 19.072 27.2746 19.008C27.1786 18.944 27.0186 18.892 26.7946 18.852L26.4346 18.78C25.7386 18.644 25.2186 18.432 24.8746 18.144C24.5386 17.848 24.3706 17.428 24.3706 16.884C24.3706 16.588 24.4346 16.32 24.5626 16.08C24.6906 15.84 24.8706 15.64 25.1026 15.48C25.3346 15.32 25.6106 15.196 25.9306 15.108C26.2586 15.02 26.6186 14.976 27.0106 14.976C27.3066 14.976 27.5826 15 27.8386 15.048C28.1026 15.088 28.3306 15.152 28.5226 15.24C28.7146 15.328 28.8666 15.444 28.9786 15.588C29.0906 15.724 29.1466 15.888 29.1466 16.08C29.1466 16.264 29.1106 16.424 29.0386 16.56C28.9746 16.688 28.8906 16.796 28.7866 16.884C28.7226 16.844 28.6266 16.804 28.4986 16.764C28.3706 16.716 28.2306 16.676 28.0786 16.644C27.9266 16.604 27.7706 16.572 27.6106 16.548C27.4586 16.524 27.3186 16.512 27.1906 16.512C26.9266 16.512 26.7226 16.544 26.5786 16.608C26.4346 16.664 26.3626 16.756 26.3626 16.884C26.3626 16.972 26.4026 17.044 26.4826 17.1C26.5626 17.156 26.7146 17.208 26.9386 17.256L27.3106 17.34C28.0786 17.516 28.6226 17.76 28.9426 18.072C29.2706 18.376 29.4346 18.772 29.4346 19.26ZM32.4609 18.996C32.4609 19.204 32.5249 19.352 32.6529 19.44C32.7889 19.528 32.9769 19.572 33.2169 19.572C33.3369 19.572 33.4609 19.564 33.5889 19.548C33.7169 19.524 33.8289 19.496 33.9249 19.464C33.9969 19.552 34.0569 19.652 34.1049 19.764C34.1609 19.868 34.1889 19.996 34.1889 20.148C34.1889 20.452 34.0729 20.7 33.8409 20.892C33.6169 21.084 33.2169 21.18 32.6409 21.18C31.9369 21.18 31.3929 21.02 31.0089 20.7C30.6329 20.38 30.4449 19.86 30.4449 19.14V14.004C30.5329 13.98 30.6569 13.956 30.8169 13.932C30.9849 13.9 31.1609 13.884 31.3449 13.884C31.6969 13.884 31.9689 13.948 32.1609 14.076C32.3609 14.196 32.4609 14.456 32.4609 14.856V15.624H34.0329C34.0809 15.712 34.1249 15.824 34.1649 15.96C34.2129 16.088 34.2369 16.232 34.2369 16.392C34.2369 16.672 34.1729 16.876 34.0449 17.004C33.9249 17.124 33.7609 17.184 33.5529 17.184H32.4609V18.996ZM38.9216 17.304C38.9216 17.056 38.8496 16.876 38.7056 16.764C38.5696 16.644 38.3816 16.584 38.1416 16.584C37.9816 16.584 37.8216 16.604 37.6616 16.644C37.5096 16.684 37.3776 16.744 37.2656 16.824V20.988C37.1856 21.012 37.0576 21.036 36.8816 21.06C36.7136 21.084 36.5376 21.096 36.3536 21.096C36.1776 21.096 36.0176 21.084 35.8736 21.06C35.7376 21.036 35.6216 20.988 35.5256 20.916C35.4296 20.844 35.3536 20.748 35.2976 20.628C35.2496 20.5 35.2256 20.336 35.2256 20.136V16.536C35.2256 16.32 35.2696 16.144 35.3576 16.008C35.4536 15.872 35.5816 15.748 35.7416 15.636C36.0136 15.444 36.3536 15.288 36.7616 15.168C37.1776 15.048 37.6376 14.988 38.1416 14.988C39.0456 14.988 39.7416 15.188 40.2296 15.588C40.7176 15.98 40.9616 16.528 40.9616 17.232V20.988C40.8816 21.012 40.7536 21.036 40.5776 21.06C40.4096 21.084 40.2336 21.096 40.0496 21.096C39.8736 21.096 39.7136 21.084 39.5696 21.06C39.4336 21.036 39.3176 20.988 39.2216 20.916C39.1256 20.844 39.0496 20.748 38.9936 20.628C38.9456 20.5 38.9216 20.336 38.9216 20.136V17.304ZM42.1737 13.548C42.1737 13.244 42.2737 12.988 42.4737 12.78C42.6817 12.572 42.9537 12.468 43.2897 12.468C43.6257 12.468 43.8937 12.572 44.0937 12.78C44.3017 12.988 44.4057 13.244 44.4057 13.548C44.4057 13.852 44.3017 14.108 44.0937 14.316C43.8937 14.524 43.6257 14.628 43.2897 14.628C42.9537 14.628 42.6817 14.524 42.4737 14.316C42.2737 14.108 42.1737 13.852 42.1737 13.548ZM44.3097 20.988C44.2217 21.004 44.0897 21.024 43.9137 21.048C43.7457 21.08 43.5737 21.096 43.3977 21.096C43.2217 21.096 43.0617 21.084 42.9177 21.06C42.7817 21.036 42.6657 20.988 42.5697 20.916C42.4737 20.844 42.3977 20.748 42.3417 20.628C42.2937 20.5 42.2697 20.336 42.2697 20.136V15.252C42.3577 15.236 42.4857 15.216 42.6537 15.192C42.8297 15.16 43.0057 15.144 43.1817 15.144C43.3577 15.144 43.5137 15.156 43.6497 15.18C43.7937 15.204 43.9137 15.252 44.0097 15.324C44.1057 15.396 44.1777 15.496 44.2257 15.624C44.2817 15.744 44.3097 15.904 44.3097 16.104V20.988Z" fill="#02541E"/>
<path d="M48.4524 14.988C48.9084 14.988 49.3204 15.048 49.6884 15.168C50.0644 15.28 50.3804 15.428 50.6364 15.612C50.7964 15.724 50.9204 15.848 51.0084 15.984C51.1044 16.12 51.1524 16.296 51.1524 16.512V20.712C51.1524 21.136 51.0724 21.5 50.9124 21.804C50.7524 22.116 50.5324 22.372 50.2524 22.572C49.9804 22.78 49.6564 22.932 49.2804 23.028C48.9124 23.124 48.5164 23.172 48.0924 23.172C47.3644 23.172 46.7924 23.072 46.3764 22.872C45.9604 22.68 45.7524 22.364 45.7524 21.924C45.7524 21.74 45.7884 21.576 45.8604 21.432C45.9404 21.296 46.0284 21.192 46.1244 21.12C46.3564 21.248 46.6164 21.356 46.9044 21.444C47.2004 21.532 47.5044 21.576 47.8164 21.576C48.2484 21.576 48.5924 21.504 48.8484 21.36C49.1044 21.216 49.2324 20.984 49.2324 20.664V20.472C48.9044 20.616 48.5044 20.688 48.0324 20.688C47.6724 20.688 47.3284 20.636 47.0004 20.532C46.6804 20.42 46.3964 20.252 46.1484 20.028C45.9084 19.796 45.7124 19.5 45.5604 19.14C45.4164 18.78 45.3444 18.352 45.3444 17.856C45.3444 17.368 45.4204 16.944 45.5724 16.584C45.7324 16.224 45.9484 15.928 46.2204 15.696C46.5004 15.456 46.8284 15.28 47.2044 15.168C47.5884 15.048 48.0044 14.988 48.4524 14.988ZM49.1964 16.728C49.1404 16.696 49.0564 16.664 48.9444 16.632C48.8404 16.6 48.7084 16.584 48.5484 16.584C48.1564 16.584 47.8604 16.696 47.6604 16.92C47.4684 17.136 47.3724 17.448 47.3724 17.856C47.3724 18.32 47.4684 18.656 47.6604 18.864C47.8604 19.064 48.1124 19.164 48.4164 19.164C48.7444 19.164 49.0044 19.088 49.1964 18.936V16.728ZM58.177 20.988C58.097 21.012 57.969 21.036 57.793 21.06C57.625 21.084 57.449 21.096 57.265 21.096C57.089 21.096 56.929 21.084 56.785 21.06C56.649 21.036 56.533 20.988 56.437 20.916C56.341 20.844 56.265 20.748 56.209 20.628C56.161 20.5 56.137 20.336 56.137 20.136V17.472C56.137 17.144 56.053 16.916 55.885 16.788C55.725 16.652 55.525 16.584 55.285 16.584C55.125 16.584 54.973 16.604 54.829 16.644C54.685 16.684 54.569 16.732 54.481 16.788V20.988C54.401 21.012 54.273 21.036 54.097 21.06C53.929 21.084 53.753 21.096 53.569 21.096C53.393 21.096 53.233 21.084 53.089 21.06C52.953 21.036 52.837 20.988 52.741 20.916C52.645 20.844 52.569 20.748 52.513 20.628C52.465 20.5 52.441 20.336 52.441 20.136V13.176C52.529 13.16 52.657 13.14 52.825 13.116C53.001 13.084 53.177 13.068 53.353 13.068C53.529 13.068 53.685 13.08 53.821 13.104C53.965 13.128 54.085 13.176 54.181 13.248C54.277 13.32 54.349 13.42 54.397 13.548C54.453 13.668 54.481 13.828 54.481 14.028V15.204C54.585 15.164 54.741 15.12 54.949 15.072C55.165 15.016 55.401 14.988 55.657 14.988C56.449 14.988 57.065 15.188 57.505 15.588C57.953 15.98 58.177 16.568 58.177 17.352V20.988ZM61.4765 18.996C61.4765 19.204 61.5405 19.352 61.6685 19.44C61.8045 19.528 61.9925 19.572 62.2325 19.572C62.3525 19.572 62.4765 19.564 62.6045 19.548C62.7325 19.524 62.8445 19.496 62.9405 19.464C63.0125 19.552 63.0725 19.652 63.1205 19.764C63.1765 19.868 63.2045 19.996 63.2045 20.148C63.2045 20.452 63.0885 20.7 62.8565 20.892C62.6325 21.084 62.2325 21.18 61.6565 21.18C60.9525 21.18 60.4085 21.02 60.0245 20.7C59.6485 20.38 59.4605 19.86 59.4605 19.14V14.004C59.5485 13.98 59.6725 13.956 59.8325 13.932C60.0005 13.9 60.1765 13.884 60.3605 13.884C60.7125 13.884 60.9845 13.948 61.1765 14.076C61.3765 14.196 61.4765 14.456 61.4765 14.856V15.624H63.0485C63.0965 15.712 63.1405 15.824 63.1805 15.96C63.2285 16.088 63.2525 16.232 63.2525 16.392C63.2525 16.672 63.1885 16.876 63.0605 17.004C62.9405 17.124 62.7765 17.184 62.5685 17.184H61.4765V18.996ZM66.9172 14.988C67.3972 14.988 67.8412 15.052 68.2492 15.18C68.6652 15.3 69.0212 15.488 69.3172 15.744C69.6132 16 69.8452 16.324 70.0132 16.716C70.1812 17.1 70.2652 17.56 70.2652 18.096C70.2652 18.608 70.1932 19.056 70.0492 19.44C69.9052 19.824 69.7012 20.148 69.4372 20.412C69.1732 20.668 68.8532 20.86 68.4772 20.988C68.1092 21.116 67.6972 21.18 67.2412 21.18C66.8972 21.18 66.5772 21.128 66.2812 21.024V23.016C66.2012 23.04 66.0732 23.064 65.8972 23.088C65.7212 23.12 65.5412 23.136 65.3572 23.136C65.1812 23.136 65.0212 23.124 64.8772 23.1C64.7412 23.076 64.6252 23.028 64.5292 22.956C64.4332 22.884 64.3612 22.784 64.3132 22.656C64.2652 22.536 64.2412 22.376 64.2412 22.176V16.416C64.2412 16.2 64.2852 16.024 64.3732 15.888C64.4692 15.752 64.5972 15.628 64.7572 15.516C65.0052 15.356 65.3132 15.228 65.6812 15.132C66.0492 15.036 66.4612 14.988 66.9172 14.988ZM66.9412 19.572C67.7652 19.572 68.1772 19.08 68.1772 18.096C68.1772 17.584 68.0732 17.204 67.8652 16.956C67.6652 16.708 67.3732 16.584 66.9892 16.584C66.8372 16.584 66.7012 16.604 66.5812 16.644C66.4612 16.676 66.3572 16.716 66.2692 16.764V19.404C66.3652 19.452 66.4692 19.492 66.5812 19.524C66.6932 19.556 66.8132 19.572 66.9412 19.572ZM73.7802 19.704C73.9162 19.704 74.0642 19.692 74.2242 19.668C74.3922 19.636 74.5162 19.596 74.5962 19.548V18.588L73.7322 18.66C73.5082 18.676 73.3242 18.724 73.1802 18.804C73.0362 18.884 72.9642 19.004 72.9642 19.164C72.9642 19.324 73.0242 19.456 73.1442 19.56C73.2722 19.656 73.4842 19.704 73.7802 19.704ZM73.6842 14.988C74.1162 14.988 74.5082 15.032 74.8602 15.12C75.2202 15.208 75.5242 15.344 75.7722 15.528C76.0282 15.704 76.2242 15.932 76.3602 16.212C76.4962 16.484 76.5642 16.808 76.5642 17.184V19.872C76.5642 20.08 76.5042 20.252 76.3842 20.388C76.2722 20.516 76.1362 20.628 75.9762 20.724C75.4562 21.036 74.7242 21.192 73.7802 21.192C73.3562 21.192 72.9722 21.152 72.6282 21.072C72.2922 20.992 72.0002 20.872 71.7522 20.712C71.5122 20.552 71.3242 20.348 71.1882 20.1C71.0602 19.852 70.9962 19.564 70.9962 19.236C70.9962 18.684 71.1602 18.26 71.4882 17.964C71.8162 17.668 72.3242 17.484 73.0122 17.412L74.5842 17.244V17.16C74.5842 16.928 74.4802 16.764 74.2722 16.668C74.0722 16.564 73.7802 16.512 73.3962 16.512C73.0922 16.512 72.7962 16.544 72.5082 16.608C72.2202 16.672 71.9602 16.752 71.7282 16.848C71.6242 16.776 71.5362 16.668 71.4642 16.524C71.3922 16.372 71.3562 16.216 71.3562 16.056C71.3562 15.848 71.4042 15.684 71.5002 15.564C71.6042 15.436 71.7602 15.328 71.9682 15.24C72.2002 15.152 72.4722 15.088 72.7842 15.048C73.1042 15.008 73.4042 14.988 73.6842 14.988ZM80.4875 14.988C80.9675 14.988 81.4115 15.052 81.8195 15.18C82.2355 15.3 82.5915 15.488 82.8875 15.744C83.1835 16 83.4155 16.324 83.5835 16.716C83.7515 17.1 83.8355 17.56 83.8355 18.096C83.8355 18.608 83.7635 19.056 83.6195 19.44C83.4755 19.824 83.2715 20.148 83.0075 20.412C82.7435 20.668 82.4235 20.86 82.0475 20.988C81.6795 21.116 81.2675 21.18 80.8115 21.18C80.4675 21.18 80.1475 21.128 79.8515 21.024V23.016C79.7715 23.04 79.6435 23.064 79.4675 23.088C79.2915 23.12 79.1115 23.136 78.9275 23.136C78.7515 23.136 78.5915 23.124 78.4475 23.1C78.3115 23.076 78.1955 23.028 78.0995 22.956C78.0035 22.884 77.9315 22.784 77.8835 22.656C77.8355 22.536 77.8115 22.376 77.8115 22.176V16.416C77.8115 16.2 77.8555 16.024 77.9435 15.888C78.0395 15.752 78.1675 15.628 78.3275 15.516C78.5755 15.356 78.8835 15.228 79.2515 15.132C79.6195 15.036 80.0315 14.988 80.4875 14.988ZM80.5115 19.572C81.3355 19.572 81.7475 19.08 81.7475 18.096C81.7475 17.584 81.6435 17.204 81.4355 16.956C81.2355 16.708 80.9435 16.584 80.5595 16.584C80.4075 16.584 80.2715 16.604 80.1515 16.644C80.0315 16.676 79.9275 16.716 79.8395 16.764V19.404C79.9355 19.452 80.0395 19.492 80.1515 19.524C80.2635 19.556 80.3835 19.572 80.5115 19.572ZM87.915 21.192C87.443 21.192 87.003 21.128 86.595 21C86.195 20.864 85.843 20.664 85.539 20.4C85.243 20.136 85.007 19.804 84.831 19.404C84.663 19.004 84.579 18.536 84.579 18C84.579 17.472 84.663 17.02 84.831 16.644C85.007 16.26 85.235 15.948 85.515 15.708C85.795 15.46 86.115 15.28 86.475 15.168C86.835 15.048 87.203 14.988 87.579 14.988C88.003 14.988 88.387 15.052 88.731 15.18C89.083 15.308 89.383 15.484 89.631 15.708C89.887 15.932 90.083 16.2 90.219 16.512C90.363 16.824 90.435 17.164 90.435 17.532C90.435 17.804 90.359 18.012 90.207 18.156C90.055 18.3 89.843 18.392 89.571 18.432L86.607 18.876C86.695 19.14 86.875 19.34 87.147 19.476C87.419 19.604 87.731 19.668 88.083 19.668C88.411 19.668 88.719 19.628 89.007 19.548C89.303 19.46 89.543 19.36 89.727 19.248C89.855 19.328 89.963 19.44 90.051 19.584C90.139 19.728 90.183 19.88 90.183 20.04C90.183 20.4 90.015 20.668 89.679 20.844C89.423 20.98 89.135 21.072 88.815 21.12C88.495 21.168 88.195 21.192 87.915 21.192ZM87.579 16.476C87.387 16.476 87.219 16.508 87.075 16.572C86.939 16.636 86.827 16.72 86.739 16.824C86.651 16.92 86.583 17.032 86.535 17.16C86.495 17.28 86.471 17.404 86.463 17.532L88.515 17.196C88.491 17.036 88.403 16.876 88.251 16.716C88.099 16.556 87.875 16.476 87.579 16.476ZM93.457 20.988C93.377 21.012 93.249 21.036 93.073 21.06C92.905 21.084 92.729 21.096 92.545 21.096C92.369 21.096 92.209 21.084 92.065 21.06C91.929 21.036 91.813 20.988 91.717 20.916C91.621 20.844 91.545 20.748 91.489 20.628C91.441 20.5 91.417 20.336 91.417 20.136V16.536C91.417 16.352 91.449 16.196 91.513 16.068C91.585 15.932 91.685 15.812 91.813 15.708C91.941 15.604 92.097 15.512 92.281 15.432C92.473 15.344 92.677 15.268 92.893 15.204C93.109 15.14 93.333 15.092 93.565 15.06C93.797 15.02 94.029 15 94.261 15C94.645 15 94.949 15.076 95.173 15.228C95.397 15.372 95.509 15.612 95.509 15.948C95.509 16.06 95.493 16.172 95.461 16.284C95.429 16.388 95.389 16.484 95.341 16.572C95.173 16.572 95.001 16.58 94.825 16.596C94.649 16.612 94.477 16.636 94.309 16.668C94.141 16.7 93.981 16.736 93.829 16.776C93.685 16.808 93.561 16.848 93.457 16.896V20.988Z" fill="#02541E"/>
</svg>
